<svg xmlns="http://www.w3.org/2000/svg" viewBox="27 155 972 890"><path d="M723 1045c-18 0-32.917-6.58-44.75-19.75S660.5 995.333 660.5 975q0-41 21.5-75.25T740 845t80.5-20.5q38 0 71.25 15t54 39.5 20.75 53q0 28-20.5 42.5T890 989q-33.5 0-57 8.5-23.5 8.505-41.5 19.5t-34.25 19.5c-10.833 5.67-22.25 8.5-34.25 8.5M560.5 927.5q-21 0-39.5-13.5t-30.25-34.5-11.75-43 12-36.5 33.5-14.5q22 0 40.75 13.25t30.25 34T607 876.5t-13 37-33.5 14M103 442q-19.5 0-37-12.5t-28.5-32.75-11-42.25q0-24.5 14-40.25T76 298.5q19 0 37.25 12t30 32T155 386q0 24-14.5 40T103 442m134.5 142q-30.5 0-43.25-18t-12.75-44q0-36 22-71t58-58 78-23q33 0 67.25 14.5t57.5 39 23.25 54q0 59.5-89.5 59.5-37.5 0-60 7t-37.5 16.5-29 16.5-34 7m418 221q-20.5 0-38.5-13t-29-33.5-11-42q0-25.5 14.75-41.75T629 658.5q21 0 38.75 13t28.75 33.25 11 42.25q0 24-14.25 41t-37.75 17m-438-465.5q-26.5 0-47.5-27.5t-21-64q0-30 15-49.75t37.5-19.75q18 0 33.75 13t25.5 34 9.75 45q0 29-15.25 49t-37.75 20m574 409q-26.5 0-43.5-25.75t-17-56.25q0-27.5 14-49.75t39-22.25q27 0 43.75 26T844.5 677q0 27.5-14 49.5t-39 22M366 307.5q-26 0-44.25-23t-18.25-56q0-30.5 15.75-52T357 155q26 0 44.25 23t18.25 55.5q0 30.5-15.75 52.25T366 307.5m139 47q-23.5 0-39.5-20t-16-49q0-31 18-53.5t42.5-22.5q23.5 0 39.5 20t16 49q0 31-17.75 53.5T505 354.5m438.5 416q-26.5 0-43.5-22.75t-17-51.25q0-28 16.25-48.75T940 627q26 0 42 22.75T998 701q0 27.5-15.5 48.5t-39 21"/></svg>